PathFileType	4	(X/Y/Z)	C:\Users\Basilio\Documents\Thesis Gigler\squatting_fais\c3dfiles\044\SLS_back_pre3\markers_experimental.trc
DataRate	CameraRate	NumFrames	NumMarkers	Units	OrigDataRate	OrigDataStartFrame	OrigNumFrames
200.000000	200.000000	4	61	mm	200.000000	1053	1405
Frame#	Time	FHD			LBHD			RBHD			C7			T10			LSHO			LUUPA			LMUPA			LDUPA			LLEP			LMEP			LUL			LRFIN			RSHO			RUPA1			RMUPA			RDUPA			RLEP			RMEP			RUL			LASI			RASI			USACR			LSACR			RSACR			LTHI1			LTHI2			LTHI3			LTHI4			LLFC			LMFC			LTIB1			LTIB2			LTIB3			LTIB4			LLMAL			LMMAL			LHEE			LMT1			LMT2			LMT5			RTHI			RTHI2			RTHI3			RTHI4			RLFC			RMFC			RTIB1			RTIB2			RTIB3			RTIB4			RLMAL			RHEE			RMT1			RMT2			RMT5			RMMAL			RUFIN			LRAD			*59			*60			
		X1	Y1	Z1	X2	Y2	Z2	X3	Y3	Z3	X4	Y4	Z4	X5	Y5	Z5	X6	Y6	Z6	X7	Y7	Z7	X8	Y8	Z8	X9	Y9	Z9	X10	Y10	Z10	X11	Y11	Z11	X12	Y12	Z12	X13	Y13	Z13	X14	Y14	Z14	X15	Y15	Z15	X16	Y16	Z16	X17	Y17	Z17	X18	Y18	Z18	X19	Y19	Z19	X20	Y20	Z20	X21	Y21	Z21	X22	Y22	Z22	X23	Y23	Z23	X24	Y24	Z24	X25	Y25	Z25	X26	Y26	Z26	X27	Y27	Z27	X28	Y28	Z28	X29	Y29	Z29	X30	Y30	Z30	X31	Y31	Z31	X32	Y32	Z32	X33	Y33	Z33	X34	Y34	Z34	X35	Y35	Z35	X36	Y36	Z36	X37	Y37	Z37	X38	Y38	Z38	X39	Y39	Z39	X40	Y40	Z40	X41	Y41	Z41	X42	Y42	Z42	X43	Y43	Z43	X44	Y44	Z44	X45	Y45	Z45	X46	Y46	Z46	X47	Y47	Z47	X48	Y48	Z48	X49	Y49	Z49	X50	Y50	Z50	X51	Y51	Z51	X52	Y52	Z52	X53	Y53	Z53	X54	Y54	Z54	X55	Y55	Z55	X56	Y56	Z56	X57	Y57	Z57	X58	Y58	Z58	X59	Y59	Z59	X60	Y60	Z60	X61	Y61	Z61	

1054	5.265	-149.2664337158203	1780.4921875	-988.4383544921877	-273.3064880371094	1736.805297851563	-1075.671508789063	-324.2712097167969	1705.56591796875	-920.1941528320315	-321.3076477050782	1551.451904296875	-1015.722351074219	-368.9774169921876	1259.208740234375	-1002.987854003906	-217.3058013916016	1571.957885742188	-1151.251586914063	-58.07107543945314	1562.692504882813	-1256.074096679688	-28.02963066101075	1576.089721679688	-1217.8876953125	9.901608467102053	1566.406127929688	-1262.150268554688	69.68173217773439	1572.67578125	-1253.797119140625	70.62534332275392	1493.63232421875	-1246.859497070313	302.6882934570313	1603.005249023438	-1091.512329101563	306.1224060058594	1618.089477539063	-987.0959472656252	-246.9196472167969	1556.653076171875	-856.376892089844	-102.1217193603516	1548.933349609375	-745.0550537109376	-71.86330413818361	1565.432739257813	-783.1076660156252	-33.03537368774415	1554.018188476563	-737.3983764648439	27.34749603271485	1562.472412109375	-742.6820678710939	33.20379257202149	1482.543090820313	-752.1467285156251	292.5381469726563	1601.740600585938	-834.4926757812502	-244.0509643554688	1030.220336914063	-1082.197265625	-245.1546783447266	1030.872314453125	-869.6319580078127	-398.2319335937501	1118.4248046875	-977.325866699219	-411.899383544922	1085.99609375	-1001.409484863281	-409.3128356933595	1092.77001953125	-944.636657714844	-311.6190490722657	798.435729980469	-1144.020385742188	-264.6196289062501	728.3242797851564	-1140.611572265625	-217.5031890869141	739.7239990234376	-1133.374877929688	-279.3555297851563	673.3897094726564	-1120.978393554688	-236.2822418212891	525.7707519531251	-1100.342407226563	-234.5022735595704	525.9067382812501	-979.2038574218752	-231.4125976562501	352.8710327148438	-1014.312622070313	-259.2490844726563	305.2914428710938	-1084.410766601563	-231.0990142822266	302.9368286132813	-1045.175537109375	-258.6419067382813	229.6879119873047	-1012.285583496094	-322.0953979492188	119.6508560180664	-1056.040283203125	-306.2474975585938	127.6333465576172	-970.873229980469	-387.4044189453126	97.72657775878909	-1008.459716796875	-180.9220733642578	56.5697479248047	-984.2713623046877	-178.3299865722657	60.1522674560547	-1029.407836914063	-215.8406066894532	49.10372924804689	-1077.294555664063	-277.4012145996094	773.810485839844	-777.5794677734377	-219.4288635253907	737.5481567382814	-776.2885742187502	-189.8233489990235	750.0090332031251	-786.0000000000002	-216.7498016357422	653.6645507812501	-790.0501098632815	-215.7772674560547	564.8598632812501	-807.6316528320315	-214.5906219482422	553.3890380859376	-922.4402465820315	-266.0002136230469	442.5890197753907	-828.3450927734377	-372.9302062988282	452.448944091797	-803.1217041015627	-347.6954956054688	415.4835205078126	-809.4699707031252	-374.0853576660157	370.2793884277344	-835.247009277344	-534.7351684570314	314.1591796875001	-841.2384033203127	-592.0649414062501	314.7512817382813	-903.7457275390627	-440.6705017089845	172.4993743896485	-873.8309326171877	-443.5805969238282	170.6189880371094	-837.492614746094	-496.032928466797	183.0387268066407	-798.090026855469	-497.6585388183595	296.3702697753907	-918.6549072265627	297.1994018554688	1583.903564453125	-948.5541992187502	284.5968627929688	1552.581787109375	-1043.696411132813	nan	nan	nan	nan	nan	nan	
1055	5.27	-149.5750579833985	1781.401489257813	-988.1536865234377	-273.4145812988282	1737.741943359375	-1075.404663085938	-324.3718566894532	1706.828979492188	-920.2847900390627	-321.5466613769532	1552.681884765625	-1015.871704101563	-368.8092956542969	1260.137573242188	-1003.1171875	-217.9789733886719	1572.785888671875	-1151.370361328125	-58.0741310119629	1563.677978515625	-1255.934814453125	-28.30266952514649	1577.350463867188	-1217.568115234375	9.93057155609131	1567.47607421875	-1261.591064453125	70.30012512207033	1573.451538085938	-1253.589599609375	70.74085998535158	1494.814453125	-1246.462524414063	302.6918334960938	1603.66259765625	-1090.841674804688	305.8062438964844	1618.5830078125	-986.327087402344	-247.0604553222657	1557.491088867188	-856.2473754882815	-102.4398269653321	1550.239013671875	-744.9163208007814	-72.0771942138672	1566.652099609375	-782.8472290039065	-33.60679244995118	1554.977172851563	-736.9567260742189	26.93031311035157	1563.740234375	-742.3082885742189	32.8543815612793	1483.689453125	-751.7034301757814	292.2439270019532	1603.064208984375	-834.1070556640627	-243.5552368164063	1030.896362304688	-1082.065551757813	-244.9847106933594	1032.004150390625	-869.3532714843752	-397.8522033691407	1119.061767578125	-977.4890747070315	-411.4088745117189	1086.722412109375	-1001.605590820313	-409.3843994140626	1093.64697265625	-944.7501220703127	-311.9561462402344	798.9223632812502	-1143.704345703125	-265.2666015625001	728.7000732421876	-1140.33544921875	-217.8750000000001	739.9251098632814	-1133.247802734375	-279.9221191406251	673.7753906250001	-1120.753540039063	-237.436019897461	526.0712890625001	-1100.139282226563	-235.1668090820313	525.7919311523439	-978.9510498046877	-232.4506072998047	353.2000122070313	-1014.204650878906	-259.3314819335938	305.3583679199219	-1084.5439453125	-231.6887969970704	303.0316467285157	-1045.096069335938	-258.8597717285157	229.6972961425782	-1012.261962890625	-322.1201782226563	119.6706848144532	-1056.034912109375	-306.3890380859376	127.7165679931641	-970.9094848632815	-387.4866027832032	98.26396179199222	-1008.51025390625	-180.9271545410157	56.56227493286134	-984.2802734375002	-178.2683258056641	60.09385681152345	-1029.357543945313	-215.9363403320313	49.1110305786133	-1077.209594726563	-277.4309387207032	774.869323730469	-777.1235961914065	-219.4064483642579	738.7760009765626	-775.7974853515627	-189.7225341796875	751.3682250976564	-785.1715087890627	-217.0396118164063	654.8586425781251	-789.1965332031252	-215.5420379638672	565.3096923828126	-805.983337402344	-214.2122344970704	554.1038208007814	-921.6348266601565	-264.4381713867188	442.6605834960939	-826.8887329101565	-371.4792175292969	451.2522277832032	-801.4617309570315	-345.5822143554688	414.627410888672	-807.918395996094	-371.6466674804688	369.0332336425782	-833.6212158203127	-531.6376953125001	310.8913879394532	-839.2639770507815	-588.8024902343751	310.6884155273438	-901.7730102539065	-435.0337829589845	170.6854705810547	-871.7779541015627	-438.7467651367189	168.3372650146485	-834.950134277344	-491.332489013672	180.197250366211	-795.903747558594	-495.1619567871095	293.7144165039063	-917.139099121094	297.0443420410157	1585.179321289063	-948.0137329101565	284.2734069824219	1553.377685546875	-1043.122680664063	nan	nan	nan	nan	nan	nan	
1056	5.275	-149.8206634521485	1782.069091796875	-987.7160644531252	-273.9775085449219	1738.240966796875	-1075.395385742188	-324.5565795898438	1707.697265625	-920.2438964843752	-321.9554443359376	1553.743041992188	-1015.777160644531	-368.9371948242188	1260.814697265625	-1003.309997558594	-217.8267822265626	1573.942260742188	-1151.061645507813	-58.05952072143556	1564.454345703125	-1255.636474609375	-28.19728469848634	1578.226684570313	-1217.334838867188	9.89760208129883	1568.211059570313	-1261.457641601563	70.39180755615236	1574.307006835938	-1253.300170898438	70.94209289550783	1495.726440429688	-1246.172973632813	302.5689086914063	1604.856811523438	-1090.375244140625	305.7217712402344	1619.6943359375	-985.772644042969	-247.283676147461	1558.299926757813	-856.069763183594	-103.0178451538086	1551.153930664063	-744.9534912109376	-72.26998138427736	1567.336547851563	-782.5861816406252	-33.90201568603516	1555.9501953125	-736.5703735351564	26.62487030029298	1564.646362304688	-741.9922485351564	32.31575012207032	1484.464477539063	-751.1831665039064	291.8820495605469	1603.868530273438	-833.5047607421877	-243.1346893310547	1031.538452148438	-1081.820434570313	-244.8323516845704	1033.077026367188	-869.0437622070315	-397.738006591797	1119.925537109375	-977.6692504882815	-411.057098388672	1087.166625976563	-1001.841552734375	-409.1489257812501	1094.277709960938	-944.8541259765627	-312.3870849609376	799.5254516601565	-1143.166137695313	-265.7409973144532	729.0740966796876	-1139.995239257813	-218.2573852539063	740.0228271484376	-1133.091186523438	-280.6229858398438	674.1221923828126	-1120.437622070313	-238.4103546142579	526.2769775390626	-1099.988525390625	-235.7357788085938	525.6538696289064	-978.5699462890627	-233.2149200439454	353.2694091796876	-1014.060607910156	-260.2986755371094	305.7953796386719	-1084.392944335938	-232.4223785400391	303.4972534179688	-1045.104248046875	-259.1055908203126	229.658920288086	-1012.201416015625	-322.1654968261719	119.6972351074219	-1055.974365234375	-306.4186401367188	127.6459732055664	-970.8598632812502	-387.9301147460939	98.84641265869143	-1008.282470703125	-180.923583984375	56.55823135375978	-984.205505371094	-178.2824859619141	60.08926010131837	-1029.40771484375	-215.7892303466797	49.14916229248048	-1077.300048828125	-277.4194030761719	776.3251953125002	-776.7168579101565	-219.5341033935547	739.9246215820314	-775.274108886719	-189.9135284423828	752.0742187500001	-784.315856933594	-217.108627319336	655.6168823242189	-788.0617675781252	-215.6351013183594	566.1353149414064	-804.8392333984377	-214.0220031738282	554.6536865234376	-920.4532470703127	-262.9554748535157	442.8587951660157	-825.1866455078127	-369.8303222656251	449.8012084960939	-799.9110107421877	-343.7595825195313	413.4407043457032	-806.254821777344	-369.1119689941407	367.4978637695313	-831.565612792969	-528.5173950195314	307.6510314941407	-837.2258300781252	-585.7802734375001	306.4639282226563	-899.6944580078127	-429.4776916503907	168.7178649902344	-870.2835083007815	-433.683563232422	165.8836517333985	-833.0405273437502	-486.3924255371095	177.1870574951172	-793.8588867187502	-491.8482055664064	290.6516418457032	-915.1004638671877	298.5168151855469	1587.245483398438	-947.3605957031252	284.1563720703126	1554.779296875	-1042.606079101563	nan	nan	nan	nan	nan	nan	
1057	5.28	-149.8123626708985	1782.964721679688	-987.267028808594	-274.1593627929688	1739.036376953125	-1075.22802734375	-324.9355468750001	1708.30517578125	-920.0952758789065	-321.9391174316407	1554.00927734375	-1015.530212402344	-368.8087768554688	1261.384155273438	-1003.35205078125	-217.5158691406251	1574.68994140625	-1150.896240234375	-57.59034729003908	1565.037353515625	-1255.807006835938	-28.27261924743653	1579.163818359375	-1217.203247070313	10.41397380828858	1568.904174804688	-1261.551025390625	70.18164825439455	1575.335083007813	-1253.1630859375	71.03042602539064	1496.624389648438	-1245.83056640625	302.4107971191407	1605.69189453125	-1089.688232421875	305.1560668945313	1621.471069335938	-985.2674560546877	-247.9036865234376	1559.588745117188	-856.0839843750002	-103.5329971313477	1552.152099609375	-744.6561279296876	-72.59290313720705	1568.229614257813	-782.2406005859377	-34.38689422607423	1557.008056640625	-736.2396240234376	26.32565116882325	1565.640258789063	-741.5981445312501	32.09253311157227	1485.619384765625	-750.9401245117189	291.5025024414063	1605.078247070313	-832.7770996093752	-242.8890533447266	1032.08447265625	-1081.6845703125	-244.5389251708985	1034.221313476563	-869.3085937500002	-397.4148254394532	1120.712158203125	-977.986267089844	-410.5833129882814	1087.679321289063	-1002.013671875	-408.9964599609376	1095.00341796875	-944.9812622070315	-312.6115417480469	799.9773559570315	-1142.886352539063	-266.3190917968751	729.3693237304689	-1139.806518554688	-218.6627502441407	740.1582641601564	-1132.8564453125	-281.2351074218751	674.6879272460939	-1120.05908203125	-239.3735961914063	526.4661254882814	-1099.801025390625	-236.5045013427735	525.7949218750001	-978.3201293945315	-233.6946716308594	353.4831237792969	-1014.01416015625	-260.2838745117188	306.4060363769532	-1084.253540039063	-232.9807586669922	303.6034545898438	-1044.94091796875	-259.7931518554688	229.9393157958985	-1012.098571777344	-322.2211914062501	119.6675338745117	-1055.994873046875	-306.5040283203126	127.698226928711	-970.8701171875002	-387.9141235351564	98.85125732421878	-1008.278991699219	-180.9147338867188	56.4656448364258	-984.257507324219	-178.3162994384766	60.13551712036134	-1029.373413085938	-215.8556518554688	49.19802093505861	-1077.316650390625	-277.5597534179688	777.413513183594	-775.9770507812502	-219.6855773925782	741.1649169921876	-774.4304809570315	-190.073715209961	753.4936523437501	-783.4720458984377	-216.9579010009766	656.8257446289064	-787.2773437500002	-215.3833618164063	566.7346191406251	-803.6582641601565	-213.6367950439454	555.2707519531251	-919.330749511719	-261.4633483886719	442.8041381835939	-823.9436035156252	-368.4757690429688	448.6941833496095	-798.1940917968752	-342.3016662597657	412.8882446289064	-806.3739013671877	-366.7302551269532	366.3947143554688	-829.8320312500002	-525.3621826171876	304.2315368652344	-834.9907836914065	-582.4672851562501	302.2674560546876	-897.4919433593752	-423.9210510253907	166.899154663086	-868.446960449219	-428.7985839843751	163.7316284179688	-830.861022949219	-481.5333557128907	174.3977661132813	-791.5391845703127	-488.2541503906251	287.4210815429688	-912.9174804687502	298.1264648437501	1587.991943359375	-946.8178710937502	283.8814392089844	1555.56396484375	-1042.021240234375	nan	nan	nan	nan	nan	nan	
